<?xml version="1.0" encoding="UTF-8"?>
<!DOCTYPE svg PUBLIC "-//W3C//DTD SVG 1.1//EN" "http://www.w3.org/Graphics/SVG/1.1/DTD/svg11.dtd">
<!-- Creator: CorelDRAW 2019 (64-Bit) -->
<svg xmlns="http://www.w3.org/2000/svg" xml:space="preserve" width="700mm" height="400mm" version="1.1" style="shape-rendering:geometricPrecision; text-rendering:geometricPrecision; image-rendering:optimizeQuality; fill-rule:evenodd; clip-rule:evenodd"
viewBox="0 0 70000 40000"
 xmlns:xlink="http://www.w3.org/1999/xlink"
 xmlns:xodm="http://www.corel.com/coreldraw/odm/2003">
 <defs>
  <style type="text/css">
   <![CDATA[
    .str0 {stroke:#E6E7E8;stroke-width:7.62;stroke-miterlimit:22.9256}
    .fil0 {fill:#FEFEFE}
   ]]>
  </style>
 </defs>
 <g id="Capa_x0020_1">
  <metadata id="CorelCorpID_0Corel-Layer"/>
  <path class="fil0 str0" d="M21493.93 13764l1234.56 0c0,172.93 35.57,336.56 61.52,467.58l835.22 5090.71c157.25,1027.27 383.83,2226.41 516.22,3222.75l506.46 3267.79c102.7,269.89 345.52,424.87 628.22,465.25 504.11,72.02 1610.73,7.96 2178.99,7.96l-128.91 82.72c-71.4,37.3 -97.73,45.6 -159.1,87.81l-312.7 286.95c-491.79,631.42 -341.72,2152.74 1129.81,2152.74 398.95,0 683.04,-204.68 891.34,-413.77 519.88,-521.84 494.01,-1409.64 -19.69,-1868.81l-518.91 -327.64 6525.56 0c-39.16,27.21 -3.73,6.57 -67.94,37.87 -35.82,17.46 -50.76,21.95 -97.88,43.21 -19.79,8.93 -71.02,33.29 -94.9,46.2 -722.98,390.88 -936.86,1376.1 -329.39,2085.4 594.85,694.56 1821.33,515.53 2223.32,-332.57 317.76,-670.4 43.5,-1466.82 -633.78,-1786.06l-188.14 -94.05c623.16,0 1246.33,-0.01 1869.49,0 1087.73,0.01 1128.75,-91.42 1128.75,-1375.67 0,-428.9 -133.04,-811.28 -564.38,-811.28l-11358.01 0c-95.27,0 -97.26,16.84 -176.37,35.27 -92.94,-175.64 -317.46,-1255.91 -317.46,-1481.48l12345.67 0c442.94,0 792.7,-156.53 1109.65,-407.11 260.5,-205.95 439.35,-625.18 443.82,-1072.92 10.2,-1020.64 -1.44,-2048.68 -1.44,-3070.23 -506.19,117.93 -845.46,396.53 -2050.78,524.18 -303.6,32.15 -564.72,-24.32 -841.64,40.19 0,284.36 32.59,980.7 -28.07,1171.23 -51.23,160.9 -140.66,241.74 -266.91,332.73 -131.09,94.49 -270.52,118.62 -481.03,118.62l-9206.34 0c-789.45,0 -733.06,-712.73 -786.63,-1118.14 -44.54,-337.02 -220.11,-1510.29 -171.75,-1708.08l158.08 -302.12c227.26,-254.59 514.91,-187.36 588.66,-187.36l5643.73 0c177.28,0 157.94,-31.72 317.46,-35.27l-192.55 -230.73c-299.67,-345.07 -436.64,-426.53 -738.77,-883.8 -196.33,-297.13 -614.88,-956.25 -691.25,-1284.06l-6067.02 0 -108.53 -526.39c-77.35,-386.09 -245.66,-1404.23 -356,-1654.57 -321.38,-729.14 -1105.47,-817.27 -1863.51,-817.27 -514.4,0 -920.33,323.73 -1171.62,697.86 -247.77,368.88 -345.13,921.25 -345.13,1524.36z"/>
  <path class="fil0 str0" d="M33204.68 12599.98c0,-1147.37 406.66,-2080.22 1172.82,-2848.34 991.84,-994.37 2656.01,-1445.48 4042.68,-920.95 530.12,200.52 240.95,93.69 651.76,300.61l715.99 518.58c1254.13,1073.99 1642.56,3094.12 894.84,4572.81 -131.75,260.56 -95.05,237.89 -267.12,473.63l-340.91 435.1c-426.49,478.68 -858.24,808.7 -1508.05,1066.9 -626.23,248.83 -766.41,190.55 -1256.58,262.59l-966.11 -16.14c-306.28,0 -604.28,256.16 -917.1,282.19 0,-325.28 -35.1,-404.6 -164.09,-611.92 -249.99,-401.79 -1270.5,-719.72 -1798.16,-2187.73 -143.86,-400.22 -259.97,-799.97 -259.97,-1327.33zm-1058.2 -70.55c0,991 298.96,1890.44 668.1,2506.5 183.12,305.6 483.02,720.61 728.48,964.64l36.32 34.23c198.59,183.31 553.76,558.72 789.32,621.61 0,290.49 -246.92,1275.46 -246.92,1693.12 158.4,-13.18 539.84,-186.18 709.82,-242.56l1406.35 -533.77c478.54,-192.47 651.78,95.33 1925.32,-155.72 831.94,-163.99 1582.7,-554 2221.42,-1094.27l236.24 -222.32c106.31,-106.8 198.73,-190.62 300.39,-299.26l275.78 -359.14c1298.96,-1717.79 1231.3,-4283.89 -155.88,-5987.7 -35.59,-43.72 -46.56,-61.49 -76.01,-100.36l-304.05 -330.87c-343.61,-371.62 -979.22,-811.9 -1429.39,-1004.46 -1359.26,-581.45 -2801.95,-653.7 -4163.45,-10.5l-597.04 320.07c-825.55,512.82 -1457.59,1268.45 -1878.48,2142.68 -267.99,556.64 -446.32,1381.84 -446.32,2058.08z"/>
 </g>
</svg>
